<svg id="レイヤー_1" data-name="レイヤー 1" xmlns="http://www.w3.org/2000/svg" xmlns:xlink="http://www.w3.org/1999/xlink" width="34.981" height="34.981" viewBox="0 0 34.981 34.981"><defs><style>.cls-1{fill:none;}.cls-2{fill:#9ebdef;}.cls-3{clip-path:url(#clip-path);}.cls-4{fill:#57abec;}.cls-5{fill:#002b3b;}.cls-6{fill:#fdd1b1;}.cls-7{fill:#e34862;}.cls-8{fill:#fff;}.cls-10,.cls-9{opacity:0.15;isolation:isolate;}.cls-9{fill:url(#名称未設定グラデーション_4);}.cls-10{fill:url(#名称未設定グラデーション_5);}</style><clipPath id="clip-path"><circle class="cls-1" cx="17.4905" cy="17.4905" r="17.4905"/></clipPath><linearGradient id="名称未設定グラデーション_4" x1="213.9741" y1="134.9375" x2="211.6502" y2="144.337" gradientTransform="matrix(1, 0, 0, -1, -194.9565, 164)" gradientUnits="userSpaceOnUse"><stop offset="0" stop-color="#fff"/><stop offset="1"/></linearGradient><linearGradient id="名称未設定グラデーション_5" x1="212.4964" y1="148.72" x2="210.4946" y2="154.4161" xlink:href="#名称未設定グラデーション_4"/></defs><circle class="cls-2" cx="17.4906" cy="17.4905" r="17.4905"/><g class="cls-3"><path class="cls-4" d="M36.0745,47.5868a41.26,41.26,0,0,1-1.7259,5.4771,73.1324,73.1324,0,0,0-4.4395,22.198,36.7289,36.7289,0,0,1-5.7827,1.1764A60.3026,60.3026,0,0,1,4.4037,75.24c0-14.7449-4.889-37.9916-1.8811-39.95,3.0132-1.9535,8.9568-5.4885,14.1455-5.9434l5.5605-.1667c11.898,2.541,14.1514,6.531,14.1514,6.531S37.8337,40.1006,36.0745,47.5868Z"/><path class="cls-5" d="M28.1935,13.8392c-.6911,5.3255-7.4594,9.3155-7.4594,9.3155a39.2414,39.2414,0,0,0-2.4611-7.3832c-1.2725-2.744-3.0424-5.3045-5.3255-5.7916C7.7164,8.8593,9.0133,4.1416,10.9227,3.3066a18.7647,18.7647,0,0,1,11.995.3058C26.2323,4.9634,26.06,8.8332,26.06,8.8332S28.8848,8.5139,28.1935,13.8392Z"/><path class="cls-6" d="M22.2286,29.1791s-2.9913,2.5971-5.5828,2.5362A3.91,3.91,0,0,1,13.2,30.1392l.15-3.4074.1332-3.1408,8.0634-4.7228.0222-.0166v.0556c0,.2,0,.91.0056,1.7481.0056,1.1154.0222,2.4583.0609,3.102C21.7237,25.117,22.2286,29.1791,22.2286,29.1791Z"/><path class="cls-7" d="M14.995,33.1287s.9838,1.4671,1.6487,1.58,2.0755-1.58,2.0755-1.58L16.6437,31.718Z"/><path class="cls-7" d="M17.7185,64.2227,14.25,70.1994l-2.3973-6.2042a153.88,153.88,0,0,1,3.818-30.7773l.8545.1166,1.504.2052S16.88,53.7785,17.7185,64.2227Z"/><polygon class="cls-8" points="16.643 31.718 18.663 34.37 24.232 29.642 22.23 27.768 16.643 31.718"/><polygon class="cls-8" points="13.201 28.671 16.643 31.718 14.922 34.37 11.854 30.476 13.201 28.671"/><path class="cls-9" d="M21.657,20.3167c-.0277.1166-.05.2275-.0832.3386-1.1932,4.6227-5.5107,5.91-8.2244,6.0765l.1332-3.1408,8.0634-4.7228a.1372.1372,0,0,1,.0222.039A2.0627,2.0627,0,0,1,21.657,20.3167Z"/><path class="cls-6" d="M24.0068,17.7823c-.1571,1.33-2.43,2.6547-2.43,2.6547-1.7543,2.6079-5.7445,6.2314-8.9911,3.5713-2.6967-2.2149-1.4243-10.677-.9162-13.4732.0994-.5709.1728-.906.1728-.906a17.008,17.008,0,0,0,4.8593.8012c2.4611,0,4.31.6754,4.1945,3.4089,0,.0052.0052.0156,0,.0209a1.13,1.13,0,0,1-.0053.1885c-.21,2.9115-.2827,3.1994.11,3.2361.3875.0367.8326-.6179.9793-.8011C22.6349,15.6719,24.1692,16.4469,24.0068,17.7823Z"/><path class="cls-10" d="M20.8965,13.8392a3.2642,3.2642,0,0,0-2.853-2.7884c-1.8934-.2206-3.4038.1528-6.3736-.5157.0994-.5709.1728-.906.1728-.906a17.008,17.008,0,0,0,4.8593.8012C19.1631,10.43,21.0116,11.1057,20.8965,13.8392Z"/></g></svg>