<?xml version="1.0" encoding="utf-8"?>
<!-- Generator: Adobe Illustrator 25.0.1, SVG Export Plug-In . SVG Version: 6.00 Build 0)  -->
<svg version="1.1" id="レイヤー_1" xmlns="http://www.w3.org/2000/svg" xmlns:xlink="http://www.w3.org/1999/xlink" x="0px"
	 y="0px" viewBox="0 0 400 118" style="enable-background:new 0 0 400 118;" xml:space="preserve">
<style type="text/css">
	.st0{fill:#FFFFFF;}
</style>
<path class="st0" d="M47.5,0L0,19.4l0,0v84.3h95V19.4L47.5,0z M32.2,91.7H18.1V26.5h14.1V91.7z M54,70.8H40.8V52.9H54V70.8z
	 M76.9,91.7H62.8V31.8h14.1V91.7z"/>
<path class="st0" d="M155.8,92.2V64.5H130v27.8h-9.6V28.6h9.6v27.1h25.8V28.6h9.6v63.6H155.8z"/>
<path class="st0" d="M216.7,92.2l-4.4-12.8h-25.1l-4.4,12.8h-10.3l23.3-63.6h7.8L227,92.2H216.7z M200.1,43l-9.9,28.2h19.6L200.1,43
	z"/>
<path class="st0" d="M258.4,67.2h-14.5v25h-9.6V28.6h24.1c12.4,0,20.4,8.2,20.4,19.3S270.8,67.2,258.4,67.2z M257.8,37.3h-13.9v21.2
	h13.9c6.7,0,11.2-3.8,11.2-10.5S264.5,37.3,257.8,37.3z"/>
<path class="st0" d="M290.4,92.2V28.6h9.6v63.6H290.4z"/>
<path class="st0" d="M316.6,92.2V28.6h9.6v54.9h30.6v8.7H316.6z"/>
<path class="st0" d="M379.8,66.1v26.2h-9.6V66.1l-19-37.4h10.5L375,56.6l13.3-27.9h10.5L379.8,66.1z"/>
</svg>
