<?xml version="1.0" encoding="utf-8"?>
<!-- Generator: Adobe Illustrator 25.0.1, SVG Export Plug-In . SVG Version: 6.00 Build 0)  -->
<svg version="1.1" id="レイヤー_1" xmlns="http://www.w3.org/2000/svg" xmlns:xlink="http://www.w3.org/1999/xlink" x="0px"
	 y="0px" viewBox="0 0 20 20" style="enable-background:new 0 0 20 20;" xml:space="preserve">
<style type="text/css">
	.st0{fill:#7A292F;}
</style>
<path class="st0" d="M16.7,17.4c-0.4,0.4-1.1,0.3-1.6-0.2L2.8,4.9C2.3,4.4,2.2,3.7,2.6,3.3l0.7-0.7c0.4-0.4,1.1-0.3,1.6,0.2
	l12.4,12.4c0.5,0.5,0.6,1.2,0.2,1.6L16.7,17.4z"/>
<path class="st0" d="M17.4,3.3c0.4,0.4,0.3,1.1-0.2,1.6L4.9,17.2c-0.5,0.5-1.2,0.6-1.6,0.2l-0.7-0.7c-0.4-0.4-0.3-1.1,0.2-1.6
	L15.1,2.8c0.5-0.5,1.2-0.6,1.6-0.2L17.4,3.3z"/>
</svg>
