<svg id="account" xmlns="http://www.w3.org/2000/svg" width="44" height="44" viewBox="0 0 44 44">
  <path id="パス_28" data-name="パス 28" d="M0,0H44V44H0Z" fill="none"/>
  <path id="パス_29" data-name="パス 29" d="M20.333,2A18.333,18.333,0,1,0,38.667,20.333,18.34,18.34,0,0,0,20.333,2ZM11.295,31.847c.788-1.65,5.592-3.263,9.038-3.263S28.6,30.2,29.372,31.847a14.53,14.53,0,0,1-18.077,0Zm20.7-2.658c-2.622-3.19-8.983-4.272-11.66-4.272S11.295,26,8.673,29.188a14.667,14.667,0,1,1,23.32,0ZM20.333,9.333A6.417,6.417,0,1,0,26.75,15.75,6.4,6.4,0,0,0,20.333,9.333Zm0,9.167a2.75,2.75,0,1,1,2.75-2.75A2.746,2.746,0,0,1,20.333,18.5Z" transform="translate(1.667 1.667)" fill="#5689e2"/>
</svg>
