<svg id="business" xmlns="http://www.w3.org/2000/svg" width="50" height="50" viewBox="0 0 50 50">
  <path id="パス_14" data-name="パス 14" d="M0,0H50V50H0Z" fill="none"/>
  <path id="パス_15" data-name="パス 15" d="M22.833,11.333V3H2V40.5H43.667V11.333Zm-12.5,25H6.167V32.167h4.167Zm0-8.333H6.167V23.833h4.167Zm0-8.333H6.167V15.5h4.167Zm0-8.333H6.167V7.167h4.167Zm8.333,25H14.5V32.167h4.167Zm0-8.333H14.5V23.833h4.167Zm0-8.333H14.5V15.5h4.167Zm0-8.333H14.5V7.167h4.167Zm20.833,25H22.833V32.167H27V28H22.833V23.833H27V19.667H22.833V15.5H39.5ZM35.333,19.667H31.167v4.167h4.167Zm0,8.333H31.167v4.167h4.167Z" transform="translate(2.167 3.25)" fill="#5689e2"/>
</svg>
