<svg id="inventory" xmlns="http://www.w3.org/2000/svg" width="50" height="50" viewBox="0 0 50 50">
  <g id="グループ_10" data-name="グループ 10">
    <rect id="長方形_23" data-name="長方形 23" width="50" height="50" fill="none"/>
  </g>
  <g id="グループ_12" data-name="グループ 12" transform="translate(6.25 2.083)">
    <g id="グループ_11" data-name="グループ 11">
      <path id="パス_16" data-name="パス 16" d="M7.167,9.333h4.167v6.25H32.167V9.333h4.167V19.75H40.5V9.333a4.179,4.179,0,0,0-4.167-4.167H27.625a6.225,6.225,0,0,0-11.75,0H7.167A4.179,4.179,0,0,0,3,9.333V38.5a4.179,4.179,0,0,0,4.167,4.167h12.5V38.5H7.167ZM21.75,5.167A2.083,2.083,0,1,1,19.667,7.25,2.089,2.089,0,0,1,21.75,5.167Z" transform="translate(-3 -1)" fill="#5689e2"/>
      <path id="パス_17" data-name="パス 17" d="M31.833,11.5,20.4,22.958l-6.271-6.25L11,19.833l9.4,9.375L34.958,14.625Z" transform="translate(5.667 10.375)" fill="#5689e2"/>
    </g>
  </g>
</svg>
